<svg width="100%" height="100%" viewBox="0 0 1792 1792" version="1.1" xmlns="http://www.w3.org/2000/svg" xmlns:xlink="http://www.w3.org/1999/xlink" xml:space="preserve" style="fill-rule:evenodd;clip-rule:evenodd;stroke-linejoin:round;stroke-miterlimit:1.41421;">
    <defs>
        <symbol id="social-spotify" viewBox="0 0 1792 1792">
            <title>Spotify</title>
            <path d="M1255 1210q0-32-30-51-193-115-447-115-133 0-287 34-42 9-42 52 0 20 13.5 34.5t35.5 14.5q5 0 37-8 132-27 243-27 226 0 397 103 19 11 33 11 19 0 33-13.5t14-34.5zm96-215q0-40-35-61-237-141-548-141-153 0-303 42-48 13-48 64 0 25 17.5 42.5t42.5 17.5q7 0 37-8 122-33 251-33 279 0 488 124 24 13 38 13 25 0 42.5-17.5t17.5-42.5zm108-248q0-47-40-70-126-73-293-110.5t-343-37.5q-204 0-364 47-23 7-38.5 25.5t-15.5 48.5q0 31 20.5 52t51.5 21q11 0 40-8 133-37 307-37 159 0 309.5 34t253.5 95q21 12 40 12 29 0 50.5-20.5t21.5-51.5zm205 149q0 209-103 385.5t-279.5 279.5-385.5 103-385.5-103-279.5-279.5-103-385.5 103-385.5 279.5-279.5 385.5-103 385.5 103 279.5 279.5 103 385.5z"/>
        </symbol>
        <symbol id="social-etsy" viewBox="0 0 1792 1792">
            <title>Etsy</title>
            <path d="M646 183v655q103 1 191.5-1.5t125.5-5.5l37-3q68-2 90.5-24.5t39.5-94.5l33-142h103l-14 322 7 319h-103l-29-127q-15-68-45-93t-84-26q-87-8-352-8v556q0 78 43.5 115.5t133.5 37.5h357q35 0 59.5-2t55-7.5 54-18 48.5-32 46-50.5 39-73l93-216h89q-6 37-31.5 252t-30.5 276q-146-5-263.5-8t-162.5-4h-672l-376 12v-102l127-25q67-13 91.5-37t25.5-79l8-643q3-402-8-645-2-61-25.5-84t-91.5-36l-127-24v-102l376 12h702q139 0 374-27-6 68-14 194.5t-12 219.5l-5 92h-93l-32-124q-31-121-74-179.5t-113-58.5h-548q-28 0-35.5 8.5t-7.5 30.5z"/>
        </symbol>
        <symbol id="social-codepen" viewBox="0 0 1792 1792">
            <title>Codepen</title>
            <path d="M216 1169l603 402v-359l-334-223zm-62-144l193-129-193-129v258zm819 546l603-402-269-180-334 223v359zm-77-493l272-182-272-182-272 182zm-411-275l334-223v-359l-603 402zm960 93l193 129v-258zm-138-93l269-180-603-402v359zm485-180v546q0 41-34 64l-819 546q-21 13-43 13t-43-13l-819-546q-34-23-34-64v-546q0-41 34-64l819-546q21-13 43-13t43 13l819 546q34 23 34 64z"/>
        </symbol>		
        <symbol id="social-goodreads" viewBox="0 0 448 512">
            <title>GoodReads</title>
            <path d="M299.9 191.2c5.1 37.3-4.7 79-35.9 100.7-22.3 15.5-52.8 14.1-70.8 5.7-37.1-17.3-49.5-58.6-46.8-97.2 4.3-60.9 40.9-87.9 75.3-87.5 46.9-.2 71.8 31.8 78.2 78.3zM448 88v336c0 30.9-25.1 56-56 56H56c-30.9 0-56-25.1-56-56V88c0-30.9 25.1-56 56-56h336c30.9 0 56 25.1 56 56zM330 313.2s-.1-34-.1-217.3h-29v40.3c-.8.3-1.2-.5-1.6-1.2-9.6-20.7-35.9-46.3-76-46-51.9.4-87.2 31.2-100.6 77.8-4.3 14.9-5.8 30.1-5.5 45.6 1.7 77.9 45.1 117.8 112.4 115.2 28.9-1.1 54.5-17 69-45.2.5-1 1.1-1.9 1.7-2.9.2.1.4.1.6.2.3 3.8.2 30.7.1 34.5-.2 14.8-2 29.5-7.2 43.5-7.8 21-22.3 34.7-44.5 39.5-17.8 3.9-35.6 3.8-53.2-1.2-21.5-6.1-36.5-19-41.1-41.8-.3-1.6-1.3-1.3-2.3-1.3h-26.8c.8 10.6 3.2 20.3 8.5 29.2 24.2 40.5 82.7 48.5 128.2 37.4 49.9-12.3 67.3-54.9 67.4-106.3z"/>
        </symbol>
    </defs>
</svg>